<svg id="visual" viewBox="0 0 960 540" width="960" height="540" xmlns="http://www.w3.org/2000/svg" xmlns:xlink="http://www.w3.org/1999/xlink" version="1.1"><rect x="0" y="0" width="960" height="540" fill="#001220"></rect><path d="M0 221L22.8 210.7C45.7 200.3 91.3 179.7 137 168.5C182.7 157.3 228.3 155.7 274 160.5C319.7 165.3 365.3 176.7 411.2 185.7C457 194.7 503 201.3 548.8 201.5C594.7 201.7 640.3 195.3 686 191.8C731.7 188.3 777.3 187.7 823 183.2C868.7 178.7 914.3 170.3 937.2 166.2L960 162L960 0L937.2 0C914.3 0 868.7 0 823 0C777.3 0 731.7 0 686 0C640.3 0 594.7 0 548.8 0C503 0 457 0 411.2 0C365.3 0 319.7 0 274 0C228.3 0 182.7 0 137 0C91.3 0 45.7 0 22.8 0L0 0Z" fill="#fa7268"></path><path d="M0 133L22.8 134C45.7 135 91.3 137 137 137.3C182.7 137.7 228.3 136.3 274 131.2C319.7 126 365.3 117 411.2 124.7C457 132.3 503 156.7 548.8 160.3C594.7 164 640.3 147 686 141.5C731.7 136 777.3 142 823 146.7C868.7 151.3 914.3 154.7 937.2 156.3L960 158L960 0L937.2 0C914.3 0 868.7 0 823 0C777.3 0 731.7 0 686 0C640.3 0 594.7 0 548.8 0C503 0 457 0 411.2 0C365.3 0 319.7 0 274 0C228.3 0 182.7 0 137 0C91.3 0 45.7 0 22.8 0L0 0Z" fill="#ef5f67"></path><path d="M0 139L22.8 136.8C45.7 134.7 91.3 130.3 137 124.8C182.7 119.3 228.3 112.7 274 114.3C319.7 116 365.3 126 411.2 129.7C457 133.3 503 130.7 548.8 127.8C594.7 125 640.3 122 686 118.2C731.7 114.3 777.3 109.7 823 112.2C868.7 114.7 914.3 124.3 937.2 129.2L960 134L960 0L937.2 0C914.3 0 868.7 0 823 0C777.3 0 731.7 0 686 0C640.3 0 594.7 0 548.8 0C503 0 457 0 411.2 0C365.3 0 319.7 0 274 0C228.3 0 182.7 0 137 0C91.3 0 45.7 0 22.8 0L0 0Z" fill="#e34c67"></path><path d="M0 96L22.8 90.3C45.7 84.7 91.3 73.3 137 71.5C182.7 69.7 228.3 77.3 274 82.5C319.7 87.7 365.3 90.3 411.2 88.2C457 86 503 79 548.8 78.5C594.7 78 640.3 84 686 81.7C731.7 79.3 777.3 68.7 823 62.2C868.7 55.7 914.3 53.3 937.2 52.2L960 51L960 0L937.2 0C914.3 0 868.7 0 823 0C777.3 0 731.7 0 686 0C640.3 0 594.7 0 548.8 0C503 0 457 0 411.2 0C365.3 0 319.7 0 274 0C228.3 0 182.7 0 137 0C91.3 0 45.7 0 22.8 0L0 0Z" fill="#d53867"></path><path d="M0 49L22.8 51.8C45.7 54.7 91.3 60.3 137 58.3C182.7 56.3 228.3 46.7 274 40.2C319.7 33.7 365.3 30.3 411.2 29C457 27.7 503 28.3 548.8 28.7C594.7 29 640.3 29 686 34.5C731.7 40 777.3 51 823 54.2C868.7 57.3 914.3 52.7 937.2 50.3L960 48L960 0L937.2 0C914.3 0 868.7 0 823 0C777.3 0 731.7 0 686 0C640.3 0 594.7 0 548.8 0C503 0 457 0 411.2 0C365.3 0 319.7 0 274 0C228.3 0 182.7 0 137 0C91.3 0 45.7 0 22.8 0L0 0Z" fill="#c62368"></path></svg>